<svg width="90" height="111" viewBox="0 0 90 111" fill="none" xmlns="http://www.w3.org/2000/svg">
<path d="M39.0401 0.934425C14.5088 7.52158 -2.80159 22.4961 0.376148 34.3809C3.55389 46.2657 26.0164 50.5602 50.5477 43.9731C75.0789 37.3859 92.3893 22.4114 89.2116 10.5266C89.0474 9.9125 88.8317 9.31862 88.5669 8.74548C89.2824 18.3865 75.2774 29.8481 55.8874 35.0548C35.3364 40.5732 16.5184 36.9754 13.8563 27.0189C11.3445 17.6249 24.1123 5.92671 42.824 0C41.5698 0.282734 40.3077 0.594041 39.0401 0.934425Z" fill="#C1FF3F"/>
<path d="M30.2668 105.215C8.25396 92.5393 -4.61016 73.6597 1.53399 63.046C7.67813 52.4323 30.5039 54.1036 52.5167 66.779C74.5296 79.4544 87.3937 98.3339 81.2495 108.948C80.932 109.496 80.57 110.012 80.1658 110.495C83.3497 101.404 72.7731 86.758 55.3736 76.7391C36.9324 66.1203 17.8102 64.7201 12.6629 73.6118C7.80645 82.0011 17.1258 96.5548 33.6833 107.091C32.5439 106.495 31.4043 105.87 30.2668 105.215Z" fill="#C1FF3F"/>
</svg>
